<svg  viewBox="0 0 100 121" fill="none" xmlns="http://www.w3.org/2000/svg">
<path d="M6.52969 40.8736L0.00969307 34.9436C0.00969307 34.9436 -0.260307 31.9936 2.04969 31.0536C4.67969 29.9836 7.20969 31.2436 7.20969 31.2436L11.1997 38.9236L6.52969 40.8736ZM92.5197 41.0736L86.8797 36.6036L90.6697 31.0636C90.6697 31.0636 92.6297 29.4736 96.0197 31.1636C98.6097 32.4536 99.2497 34.9536 98.9497 35.7236C98.6597 36.4936 92.5197 41.0736 92.5197 41.0736V41.0736Z" fill="#B40E1C"/>
<path d="M8.56968 39.8036L5.41968 38.9536C5.41968 38.9536 5.05968 37.4636 5.73968 36.1436C6.44968 34.7736 7.83968 34.9236 7.83968 34.9236C7.83968 34.9236 4.48968 33.2936 5.94968 29.3036C7.40968 25.3136 11.8797 26.1936 11.8797 26.1936C11.8797 26.1936 11.7797 23.6636 13.8297 22.1036C15.8697 20.5436 17.4297 21.7136 17.4297 21.7136C17.4297 21.7136 15.8497 16.6636 19.7597 14.3236C23.0997 12.3236 25.3997 14.2236 25.3997 14.2236C25.3997 14.2236 26.7497 10.8436 30.4497 10.7736C33.2197 10.7236 34.0597 11.7936 34.0597 11.7936C34.0597 11.7936 35.0297 9.84363 36.5897 8.97363C38.1497 8.09363 39.0797 8.22363 39.0797 8.22363C39.0797 8.22363 38.3697 5.80363 39.1197 3.82363C40.4397 0.323628 44.0797 -0.456372 46.7997 0.223628C50.5297 1.15363 50.0697 3.73363 50.0697 3.73363C50.0697 3.73363 51.9597 2.46363 53.7097 2.66363C55.4597 2.85363 56.3797 4.01363 56.3797 4.01363C56.3797 4.01363 57.5997 0.433628 61.6797 0.433628C65.7697 0.433628 66.9297 2.86363 67.1297 4.71363C67.3297 6.56363 66.0997 8.74363 66.0997 8.74363C66.0997 8.74363 66.6897 8.97363 66.8697 10.3736C67.0097 11.4336 66.5997 12.3736 66.5997 12.3736C66.5997 12.3736 68.4797 10.8936 72.2297 12.3736C78.4497 14.8236 77.1497 21.4436 77.1497 21.4436C77.1497 21.4436 78.9497 21.2336 80.3097 21.8136C81.8697 22.4836 82.5897 23.5836 82.5897 23.5836C82.5897 23.5836 82.9397 20.6836 86.5797 20.6636C90.3797 20.6436 93.4897 27.7636 92.8097 29.8036C92.1297 31.8436 90.2797 32.3336 90.2797 32.3336C90.2797 32.3336 91.9697 32.8136 92.5997 34.8636C93.3497 37.2836 92.7297 39.8536 92.7297 39.8536C92.7297 39.8536 66.3497 55.9536 66.0597 55.8536C65.7697 55.7536 33.0797 58.2836 33.0797 58.2836L8.56968 39.8036Z" fill="#FFB91F"/>
<path d="M20.6597 44.7836C20.6597 44.5736 20.9597 43.7036 21.5497 43.3236C22.2797 42.8536 23.3697 42.8036 23.3697 42.8036C23.3697 42.8036 22.1697 42.2336 21.4997 40.3536C21.0597 39.1336 21.5997 37.8136 21.5997 37.8136C21.5997 37.8136 18.4297 37.9636 17.6997 35.5636C16.9697 33.1636 18.1197 32.8536 18.1197 32.8536C18.1197 32.8536 16.8497 26.0436 22.1797 25.9236C29.4697 25.7636 28.2197 35.0336 28.2197 35.0336C28.2197 35.0336 29.2597 35.0336 29.8897 35.6036C30.5097 36.1736 30.7197 36.7536 30.7197 36.7536C30.7197 36.7536 32.0797 34.7036 35.2997 35.1936C42.8997 36.3436 39.3597 43.7836 39.3597 43.7836C39.3597 43.7836 37.9497 39.9336 35.5097 39.7736C33.0597 39.6136 30.0397 41.2836 30.0397 41.2836C30.0397 41.2836 34.6697 41.8536 35.9197 44.3036C37.1697 46.7536 37.0697 50.0836 37.0697 50.0836C37.0697 50.0836 27.7997 52.7936 27.5897 52.4836C27.3697 52.1836 20.6597 44.7836 20.6597 44.7836V44.7836Z" fill="#FCE193"/>
<path d="M26.4297 36.6636C25.7597 36.3736 23.8797 38.0236 23.8397 39.2536C23.7997 40.4836 24.8397 42.0536 26.0797 42.1636C27.3097 42.2736 28.5397 41.0036 28.5397 39.7736C28.5397 39.1536 27.2597 37.0236 26.4297 36.6636V36.6636Z" fill="#E17A2C"/>
<path d="M32.0897 22.8636C32.0897 22.8636 27.0997 22.1436 27.1997 26.2636C27.3297 31.7236 33.4797 30.9136 33.5297 31.2036C33.5797 31.4936 33.8297 33.3536 33.8297 33.3536C33.8297 33.3536 36.2597 33.0736 38.6097 34.4636C40.9597 35.8536 41.9697 37.4836 41.9697 37.4836C41.9697 37.4836 42.4497 35.2336 43.1197 34.2736C43.7897 33.3136 44.5097 32.5936 44.5097 32.5936C44.5097 32.5936 44.5097 31.3936 44.1697 30.4336C43.9297 29.7436 43.3597 29.3836 43.3597 29.3836C43.3597 29.3836 48.7597 26.8236 46.0397 22.5736C42.9697 17.7836 38.0797 22.2336 38.0797 22.2336C38.0797 22.2336 36.1597 19.4536 33.7697 20.1236C31.3697 20.7936 32.0897 22.8636 32.0897 22.8636V22.8636ZM44.3597 40.8336C44.3597 40.8336 42.9197 35.8936 45.6097 34.5036C48.2997 33.1136 50.0697 34.6936 50.1597 34.4036C50.2497 34.1136 54.4297 29.6536 58.0197 29.7536C63.3397 29.8936 64.5597 33.2736 64.6797 33.6336C65.2697 35.3536 64.4897 38.1436 64.4897 38.1436C64.4897 38.1436 66.4997 35.0236 69.3797 35.3136C72.2597 35.6036 72.5797 37.9036 72.5797 37.9036C72.5797 37.9036 75.7597 39.8736 75.6097 41.7436C75.4697 43.6136 73.4497 45.0036 73.4497 45.0036L68.5597 49.7936L63.2897 47.9736C63.2897 47.9736 62.5697 45.5736 62.5697 44.0936C62.5697 42.6036 62.7097 41.4136 62.7097 41.4136C62.7097 41.4136 61.2697 42.1836 60.2697 42.4636C59.2597 42.7536 57.1497 42.8036 57.1497 42.8036C57.1497 42.8036 57.0697 41.5936 55.0397 40.2136C50.5897 37.1936 44.3597 40.8336 44.3597 40.8336V40.8336Z" fill="#FCE193"/>
<path d="M46.4697 47.4936C46.4697 47.4936 44.8397 41.5736 49.5397 41.4536C55.1497 41.3136 55.9597 46.2936 56.1597 49.0736C56.3497 51.8536 48.9197 56.1236 48.6297 55.9736C48.3397 55.8336 41.3797 51.5536 41.3797 51.5536C41.3797 51.5536 40.8497 50.0136 42.0197 48.6436C43.2397 47.1936 46.4697 47.4936 46.4697 47.4936V47.4936ZM77.6797 44.7636C77.6797 44.7636 76.0497 43.4236 76.5297 40.8836C77.0097 38.3436 78.9697 38.2036 78.9697 38.2036C78.9697 38.2036 77.4797 35.9036 78.1997 34.4136C78.9197 32.9236 80.0697 32.5936 83.7597 32.6436C87.4497 32.6936 89.3197 33.6936 90.5197 34.9936C91.5997 36.1536 90.8997 39.6936 90.8997 39.6936C90.8997 39.6936 85.4397 46.2636 84.8097 46.1136C84.1897 45.9636 77.6797 44.7636 77.6797 44.7636ZM62.3797 27.6536C62.3797 27.6536 64.2997 28.8536 64.9197 29.7636C65.5397 30.6736 66.3597 32.4036 66.3597 32.4036C66.3597 32.4036 66.7597 27.7236 68.6897 25.4436C70.7997 22.9536 73.5497 23.0536 73.5997 23.0536C74.1197 23.0536 74.9897 19.1736 72.9797 17.1136C70.4597 14.5336 66.1297 15.4336 66.1697 15.8236C66.2097 16.2136 67.7497 18.0736 66.7497 22.3936C65.8197 26.3336 62.3797 27.6536 62.3797 27.6536V27.6536ZM48.9597 28.5636C49.7297 28.9536 51.0997 27.6636 52.2697 27.1236C53.6097 26.5036 55.3397 26.2636 55.3897 25.5936C55.4397 24.9236 53.5197 22.5236 50.7397 23.8636C47.9597 25.2036 48.0997 28.1336 48.9597 28.5636ZM7.63971 30.8836C7.39971 33.3236 9.88971 34.0836 9.88971 34.0836C9.88971 34.0836 9.57971 36.3336 10.4697 37.6336C11.1897 38.6836 12.6797 39.9836 13.2997 39.8436C13.9197 39.7036 15.8897 37.8336 15.8897 37.6836C15.8897 37.5436 15.7797 32.1736 14.6397 30.2536C13.0597 27.5536 8.06971 26.5536 7.63971 30.8836V30.8836ZM16.3697 27.6536C17.0397 27.6536 17.7097 26.1236 18.0997 25.5436C18.4797 24.9636 19.9197 24.0136 19.9197 24.0136C19.9197 24.0136 17.7097 22.4836 16.3197 23.8736C14.9297 25.2536 15.3597 27.6536 16.3697 27.6536ZM21.7297 23.2936C21.7297 23.2936 23.0697 23.1536 23.8397 23.1936C24.6097 23.2436 25.8997 23.4836 25.8997 23.4836C25.8997 23.4836 26.0897 22.2336 27.4797 21.3236C28.8697 20.4136 30.1597 20.7036 30.1597 20.7036C30.1597 20.7036 30.4497 18.9736 31.5497 18.2136C32.6497 17.4436 33.3197 17.4436 33.3197 17.4436C33.3197 17.4436 34.3397 14.8236 32.8397 13.8436C28.5697 11.0636 26.3797 16.6436 25.6497 16.7636C25.1097 16.8536 23.2297 14.9836 21.1697 16.4236C17.6697 18.8836 21.7297 23.2936 21.7297 23.2936V23.2936ZM35.2497 17.0136C35.2497 17.0136 36.3997 17.3036 37.2597 17.8236C38.1197 18.3436 39.4197 19.2636 39.4197 19.2636L45.7497 19.0736C45.7497 19.0736 47.1397 17.2536 49.1497 16.4336C50.7897 15.7636 52.6997 15.7136 52.6997 15.7136C52.6997 15.7136 52.8797 11.0336 49.0097 9.81363C44.1197 8.28363 42.4897 13.2636 42.4897 13.2636C42.4897 13.2636 41.0497 11.6436 39.3697 11.6836C35.6397 11.7836 35.2497 17.0136 35.2497 17.0136V17.0136Z" fill="#FCE193"/>
<path d="M42.3897 15.3336C41.8097 15.3336 38.4097 18.2536 38.3197 18.5436C38.2197 18.8336 39.1297 19.3136 39.2297 19.5936C39.3297 19.8836 45.4597 19.2136 45.7997 18.9736C46.1297 18.7336 43.6897 15.3336 42.3897 15.3336V15.3336ZM34.7297 25.2036C34.7597 25.7736 37.5597 29.5136 38.4197 29.6636C39.2797 29.8136 42.1197 26.6436 41.2997 25.9236C40.9197 25.5836 38.0897 25.9736 38.0897 25.9736C38.0897 25.9736 38.0397 23.8636 37.7997 23.5336C37.5497 23.1936 34.6797 24.2536 34.7297 25.2036Z" fill="#E17A2C"/>
<path d="M41.6797 8.81363C42.4097 8.83363 43.0697 6.13363 43.9297 5.26363C44.7897 4.39363 46.8497 3.53363 46.3697 2.19363C45.8897 0.853625 42.1997 1.23363 40.9997 3.20363C39.6697 5.39363 40.0897 8.76363 41.6797 8.81363ZM51.8897 8.09363C52.0397 8.75363 53.8997 9.53363 54.1897 9.86363C54.4797 10.2036 55.8197 11.3936 55.8197 11.3936C55.8197 11.3936 58.8897 10.6236 60.7097 11.1036C62.5297 11.5836 63.3897 12.8736 63.9197 12.5436C64.4497 12.2036 64.1597 10.7736 63.8697 10.2936C63.5797 9.81362 63.0097 8.90363 63.0097 8.90363C63.0097 8.90363 65.7697 4.62363 62.9097 3.91363C58.8397 2.90363 58.0197 7.03363 57.4897 7.12363C56.9597 7.21363 55.4297 5.59363 53.7497 5.83363C52.0797 6.08363 51.6897 7.23363 51.8897 8.09363ZM54.1897 20.4136C54.8697 21.9236 57.0197 22.0436 57.0197 22.0436C57.0197 22.0436 58.0697 25.4036 60.2297 25.6836C62.3897 25.9736 63.8097 23.7236 64.2597 21.8536C64.8397 19.4536 64.8497 14.2636 59.5097 14.3236C55.4797 14.3736 53.7597 19.4536 54.1897 20.4136V20.4136ZM75.3697 37.5236C76.0397 37.5036 75.5897 33.5636 77.7097 31.9636C79.9997 30.2336 81.7897 30.5536 84.1397 30.7136C86.5797 30.8736 88.2297 31.6336 88.7397 30.9536C89.3797 30.1136 89.7697 24.2536 86.4397 23.7636C84.4697 23.4736 83.9497 25.3936 83.9497 25.3936C83.9497 25.3936 81.9397 24.9636 80.8297 26.9736C80.0697 28.3636 80.0197 29.2736 79.6797 29.3736C79.5297 29.4136 74.3897 21.4736 70.3797 26.3036C66.2097 31.3336 73.8297 35.5036 73.8297 35.5036C73.8297 35.5036 74.0797 37.5736 75.3697 37.5236V37.5236Z" fill="#FCE193"/>
<path d="M60.1797 15.1936C59.9097 15.3736 59.7997 20.0336 60.0397 20.0836C60.2797 20.1336 63.2997 21.7636 63.7297 21.3336C64.1597 20.9036 64.1597 18.6936 63.3897 17.2636C62.9097 16.3436 61.1397 14.5636 60.1797 15.1936ZM53.7997 9.34363C53.7597 9.83363 54.4197 12.4136 55.1897 12.5036C56.4697 12.6636 58.8297 11.3036 59.0697 10.8236C59.3097 10.3436 58.8797 8.95363 56.9597 8.47363C55.0597 8.00363 53.8497 8.67363 53.7997 9.34363V9.34363ZM54.2797 38.5336C54.9497 39.2536 57.2697 37.2936 58.1097 37.6736C59.0697 38.1036 58.1097 40.5936 59.1597 40.8836C60.2097 41.1736 62.3197 37.7636 62.0797 36.2836C61.9797 35.6636 60.7397 34.8436 59.3997 34.3636C58.0597 33.8836 56.2397 33.5536 55.4197 34.0736C54.5997 34.5936 53.0797 37.2436 54.2797 38.5336V38.5336ZM82.3197 41.9836C82.3197 41.9836 82.2197 38.9136 83.0397 37.3836C83.8497 35.8536 85.9197 36.0936 86.2497 36.4736C86.5797 36.8536 87.7397 39.6336 87.7397 39.6336L85.2997 43.8036L82.3197 41.9836V41.9836Z" fill="#E17A2C"/>
<path d="M49.1697 57.6636L39.6097 53.9236L39.3397 53.5036C38.8597 52.7536 32.5597 51.7436 32.5597 51.7436L31.9997 51.6336L24.1497 49.9436L23.9297 49.5636C23.4397 48.7336 17.1197 46.4836 17.1197 46.4836L11.1797 44.0836L11.0197 43.6936C10.4897 42.4236 6.46972 40.2236 6.37972 40.4036L4.58972 39.5136C5.05972 38.5636 6.54972 36.9936 8.80972 37.9036C10.7797 38.6936 13.0297 41.4236 13.5197 42.5036L16.7497 44.1736C17.5397 43.6736 19.0297 43.1736 21.0697 43.8836C24.0297 44.9236 24.8097 47.2136 25.4197 48.1636L31.9197 49.5636C32.6097 49.0036 34.0697 48.0636 36.0197 48.3836C39.4297 48.9436 40.2597 50.9136 40.9697 51.9136L48.4597 52.5536C49.2097 51.5236 51.1197 49.3436 54.0897 48.9336C56.8697 48.5436 58.8997 49.5036 59.7197 50.4636L66.8797 48.0536C67.4797 47.1236 69.5497 44.4936 72.7897 43.9036C75.8097 43.3536 78.1797 44.8836 79.2697 45.5736L84.0497 43.1236C84.5597 42.2636 86.2097 39.5836 88.7297 38.8136C91.8797 37.8636 93.8997 39.8536 93.9897 39.9236L92.6397 41.4036C92.5997 41.3636 86.0297 45.0936 86.0097 45.1236L84.5997 47.5536L79.0797 47.9136L78.5797 47.5136C78.5597 47.4936 68.4497 49.3236 68.4297 49.3536L68.2397 49.7036L59.1997 52.7436L58.7597 52.2736C58.6997 52.2136 49.1697 57.6636 49.1697 57.6636V57.6636Z" fill="#DFDFDF"/>
<path d="M93.5397 42.8936C93.3097 42.9136 91.4297 40.2736 88.9797 41.2936C86.5297 42.3236 84.1897 46.5336 84.1897 46.5336L76.5597 47.7336C76.5597 47.7336 75.5297 45.6536 72.6797 46.4536C69.8297 47.2536 67.2697 50.7536 67.2097 50.5236C67.1497 50.2936 58.8097 52.4236 58.8097 52.4236C58.8097 52.4236 57.1597 50.5836 54.2197 51.3136C51.1797 52.0736 49.5297 55.8036 49.5297 55.8036L40.0597 53.9236C40.0597 53.9236 38.4397 51.2036 35.9897 50.8636C33.5397 50.5236 31.9497 52.1236 31.9497 52.1236L24.8797 50.4036C24.8797 50.4036 23.7997 47.4436 20.7197 46.4136C17.6397 45.3836 16.1597 46.6936 16.1597 46.6936L11.5797 43.5836C11.5797 43.5836 10.2297 41.3636 7.65968 40.1636C5.09968 38.9636 4.35968 41.0636 4.35968 41.0636L20.3197 108.214L50.8797 120.644L81.0497 107.434C81.0697 107.444 94.2297 42.8236 93.5397 42.8936Z" fill="white"/>
<path d="M6.5297 40.8736L6.50971 40.8036C6.22971 39.4936 5.49971 36.5236 3.76971 35.1736C1.51971 33.4236 0.00970459 34.9336 0.00970459 34.9336L17.3597 107.114L21.5997 108.734L6.5297 40.8736V40.8736ZM17.7797 46.2936C17.7797 46.2936 17.5097 41.7836 13.9497 40.7136C11.1197 39.8636 10.9997 42.7736 10.9997 42.7736L25.0697 110.164L30.4397 112.324L17.7797 46.2936V46.2936ZM32.8797 51.5036C32.8797 51.5036 31.4297 46.6536 27.7397 46.2436C24.0497 45.8336 24.4197 48.9336 24.4197 48.9336L33.9697 113.794L39.3397 115.974L32.8797 51.5036V51.5036ZM44.6097 50.1336C40.5597 49.6236 39.9997 53.6936 39.9997 53.6936L44.1897 117.954L50.9097 120.654L49.7097 55.4736C49.7097 55.4736 48.8597 50.6736 44.6097 50.1336V50.1336ZM67.8597 50.3836C67.8597 50.3836 68.0697 45.2836 63.5097 46.5736C58.9497 47.8536 58.4497 52.1236 58.4497 52.1236L57.3097 117.874L62.9697 115.364L67.8597 50.3836V50.3836ZM84.7697 44.9136C84.7697 44.9136 84.5797 40.9136 80.6697 41.7236C76.5697 42.5636 76.5297 46.6936 76.5297 46.6936L69.3397 112.624L74.7997 110.214L84.7697 44.9136V44.9136ZM95.2097 35.3336C91.8497 36.9436 91.5597 41.2636 91.5597 41.2636L80.1097 107.884L85.4797 105.504L98.9897 35.6636C98.9797 35.6636 98.1497 33.9236 95.2097 35.3336V35.3336Z" fill="#ED3D23"/>
</svg>
