<svg  viewBox="0 0 219 135" fill="none" xmlns="http://www.w3.org/2000/svg">
<path d="M0.479523 1.79996H10.6555L15.3595 53.448H15.5515L20.5435 1.79996H32.0635L37.0555 53.448H37.2475L41.9515 1.79996H51.0715L44.2555 69H31.1035L26.3035 23.688H26.1115L21.3115 69H7.29552L0.479523 1.79996Z" fill="#E50913"/>
<path d="M71.38 69.96C66.196 69.96 62.228 68.488 59.476 65.544C56.724 62.6 55.348 58.44 55.348 53.064V17.736C55.348 12.36 56.724 8.19997 59.476 5.25597C62.228 2.31197 66.196 0.839966 71.38 0.839966C76.564 0.839966 80.532 2.31197 83.284 5.25597C86.036 8.19997 87.412 12.36 87.412 17.736V53.064C87.412 58.44 86.036 62.6 83.284 65.544C80.532 68.488 76.564 69.96 71.38 69.96ZM71.38 60.36C75.028 60.36 76.852 58.152 76.852 53.736V17.064C76.852 12.648 75.028 10.44 71.38 10.44C67.732 10.44 65.908 12.648 65.908 17.064V53.736C65.908 58.152 67.732 60.36 71.38 60.36Z" fill="#E50913"/>
<path d="M109.52 69.96C104.336 69.96 100.368 68.488 97.6164 65.544C94.8644 62.6 93.4884 58.44 93.4884 53.064V17.736C93.4884 12.36 94.8644 8.19997 97.6164 5.25597C100.368 2.31197 104.336 0.839966 109.52 0.839966C114.704 0.839966 118.672 2.31197 121.424 5.25597C124.176 8.19997 125.552 12.36 125.552 17.736V53.064C125.552 58.44 124.176 62.6 121.424 65.544C118.672 68.488 114.704 69.96 109.52 69.96ZM109.52 60.36C113.168 60.36 114.992 58.152 114.992 53.736V17.064C114.992 12.648 113.168 10.44 109.52 10.44C105.872 10.44 104.048 12.648 104.048 17.064V53.736C104.048 58.152 105.872 60.36 109.52 60.36Z" fill="#E50913"/>
<path d="M132.397 1.79996H142.957V30.12L156.397 1.79996H166.957L154.381 26.472L167.149 69H156.109L147.181 39.048L142.957 47.592V69H132.397V1.79996Z" fill="#E50913"/>
<path d="M171.85 1.79996H182.41V69H171.85V1.79996Z" fill="#E50913"/>
<path d="M190.021 1.79996H218.821V11.4H200.581V29.16H215.077V38.76H200.581V59.4H218.821V69H190.021V1.79996Z" fill="#E50913"/>
<path d="M28.9329 80.8H40.8649L46.1849 118.876H46.3369L51.6569 80.8H63.5889V134H55.6849V93.72H55.5329L49.4529 134H42.4609L36.3809 93.72H36.2289V134H28.9329V80.8Z" fill="#E50913"/>
<path d="M81.6143 134.76C77.5103 134.76 74.369 133.595 72.1903 131.264C70.0117 128.933 68.9223 125.64 68.9223 121.384V93.416C68.9223 89.16 70.0117 85.8666 72.1903 83.536C74.369 81.2053 77.5103 80.04 81.6143 80.04C85.7183 80.04 88.8597 81.2053 91.0383 83.536C93.217 85.8666 94.3063 89.16 94.3063 93.416V121.384C94.3063 125.64 93.217 128.933 91.0383 131.264C88.8597 133.595 85.7183 134.76 81.6143 134.76ZM81.6143 127.16C84.5023 127.16 85.9463 125.412 85.9463 121.916V92.884C85.9463 89.388 84.5023 87.64 81.6143 87.64C78.7263 87.64 77.2823 89.388 77.2823 92.884V121.916C77.2823 125.412 78.7263 127.16 81.6143 127.16Z" fill="#E50913"/>
<path d="M97.3105 80.8H105.747L111.219 122.068H111.371L116.843 80.8H124.519L116.463 134H105.367L97.3105 80.8Z" fill="#E50913"/>
<path d="M128.237 80.8H136.597V134H128.237V80.8Z" fill="#E50913"/>
<path d="M142.561 80.8H165.361V88.4H150.921V102.46H162.397V110.06H150.921V126.4H165.361V134H142.561V80.8Z" fill="#E50913"/>
<path d="M180.89 134.76C176.836 134.76 173.771 133.62 171.694 131.34C169.616 129.009 168.578 125.691 168.578 121.384V118.344H176.482V121.992C176.482 125.437 177.926 127.16 180.814 127.16C182.232 127.16 183.296 126.755 184.006 125.944C184.766 125.083 185.146 123.715 185.146 121.84C185.146 119.611 184.639 117.66 183.626 115.988C182.612 114.265 180.738 112.213 178.002 109.832C174.556 106.792 172.15 104.056 170.782 101.624C169.414 99.1413 168.73 96.3546 168.73 93.264C168.73 89.0586 169.794 85.816 171.922 83.536C174.05 81.2053 177.14 80.04 181.194 80.04C185.196 80.04 188.211 81.2053 190.238 83.536C192.315 85.816 193.354 89.1093 193.354 93.416V95.62H185.45V92.884C185.45 91.06 185.095 89.7426 184.386 88.932C183.676 88.0706 182.638 87.64 181.27 87.64C178.483 87.64 177.09 89.3373 177.09 92.732C177.09 94.6573 177.596 96.456 178.61 98.128C179.674 99.8 181.574 101.827 184.31 104.208C187.806 107.248 190.212 110.009 191.53 112.492C192.847 114.975 193.506 117.888 193.506 121.232C193.506 125.589 192.416 128.933 190.238 131.264C188.11 133.595 184.994 134.76 180.89 134.76Z" fill="#E50913"/>
</svg>
